<svg width="1200" height="630" viewBox="0 0 1200 630" fill="none" xmlns="http://www.w3.org/2000/svg">
  <rect width="1200" height="630" rx="48" fill="#0B1020"/>
  <rect x="72" y="72" width="1056" height="486" rx="36" fill="#111827" stroke="#24314D"/>
  <circle cx="148" cy="148" r="14" fill="#F43F5E"/>
  <text x="188" y="155" fill="#E5E7EB" font-family="Inter, Arial, sans-serif" font-size="28" font-weight="700">TheNewNews</text>
  <text x="148" y="250" fill="#F9FAFB" font-family="Playfair Display, Georgia, serif" font-size="64" font-weight="700">Live news,</text>
  <text x="148" y="322" fill="#F9FAFB" font-family="Playfair Display, Georgia, serif" font-size="64" font-weight="700">AI digest.</text>
  <text x="148" y="388" fill="#A7B0C0" font-family="Inter, Arial, sans-serif" font-size="28">Real-time headlines powered by NewsAPI and Poke API.</text>
  <rect x="148" y="440" width="236" height="58" rx="29" fill="#F9FAFB"/>
  <text x="196" y="478" fill="#0B1020" font-family="Inter, Arial, sans-serif" font-size="22" font-weight="700">Read now</text>
  <rect x="860" y="138" width="226" height="354" rx="24" fill="#0F172A" stroke="#334155"/>
  <rect x="892" y="174" width="162" height="18" rx="9" fill="#334155"/>
  <rect x="892" y="214" width="130" height="14" rx="7" fill="#475569"/>
  <rect x="892" y="248" width="176" height="14" rx="7" fill="#475569"/>
  <rect x="892" y="296" width="136" height="136" rx="18" fill="#1E293B"/>
  <circle cx="960" cy="364" r="42" fill="#22C55E" opacity="0.9"/>
  <path d="M948 364L956 372L974 352" stroke="white" stroke-width="8" stroke-linecap="round" stroke-linejoin="round"/>
</svg>
